<?xml version="1.0" standalone="no"?>
<!DOCTYPE svg PUBLIC "-//W3C//DTD SVG 20010904//EN"
 "http://www.w3.org/TR/2001/REC-SVG-20010904/DTD/svg10.dtd">
<svg version="1.0" xmlns="http://www.w3.org/2000/svg"
 width="148.000000pt" height="148.000000pt" viewBox="0 0 148.000000 148.000000"
 preserveAspectRatio="xMidYMid meet">

<g transform="translate(0.000000,148.000000) scale(0.100000,-0.100000)"
fill="#000000" stroke="none">
<path d="M922 1450 c0 -14 2 -19 5 -12 2 6 2 18 0 25 -3 6 -5 1 -5 -13z"/>
<path d="M658 1393 c7 -3 16 -2 19 1 4 3 -2 6 -13 5 -11 0 -14 -3 -6 -6z"/>
<path d="M718 1393 c7 -3 16 -2 19 1 4 3 -2 6 -13 5 -11 0 -14 -3 -6 -6z"/>
<path d="M948 1393 c7 -3 16 -2 19 1 4 3 -2 6 -13 5 -11 0 -14 -3 -6 -6z"/>
<path d="M711 1364 c0 -11 3 -14 6 -6 3 7 2 16 -1 19 -3 4 -6 -2 -5 -13z"/>
<path d="M256 1259 c-25 -30 -32 -61 -27 -124 4 -42 18 -64 45 -71 51 -12 76
22 91 126 3 24 3 41 -1 37 -4 -4 -13 2 -21 13 -16 22 -34 25 -50 9 -16 -16 -5
-39 25 -50 22 -9 24 -13 18 -51 -8 -51 -23 -70 -50 -66 -49 7 -53 135 -5 176
10 9 19 20 19 24 0 17 -19 7 -44 -23z m74 -35 c0 -8 -4 -12 -10 -9 -5 3 -10
10 -10 16 0 5 5 9 10 9 6 0 10 -7 10 -16z"/>
<path d="M492 1273 c-17 -7 -42 -57 -42 -86 0 -13 7 -32 15 -43 14 -17 14 -16
9 23 -9 58 14 93 59 93 18 0 38 -5 45 -12 21 -21 14 -72 -13 -98 -30 -28 -37
-23 -41 27 -3 62 -4 63 -12 63 -10 0 -9 -166 1 -176 4 -4 7 2 7 14 0 14 11 27
29 37 17 8 37 25 45 37 22 31 20 91 -2 111 -18 16 -72 21 -100 10z"/>
<path d="M636 1168 c-21 -30 -20 -71 2 -91 21 -19 57 -22 67 -7 5 8 11 7 21
-1 7 -6 21 -9 29 -5 12 4 15 -4 15 -48 0 -61 19 -88 45 -66 19 16 19 40 -1 68
-20 29 -3 55 31 46 13 -3 26 -1 29 5 5 7 13 7 26 -1 14 -9 22 -9 34 1 12 10
20 10 29 3 7 -6 29 -10 50 -9 34 2 37 4 37 33 0 18 9 42 20 55 l19 24 1 -42
c0 -23 3 -48 6 -57 7 -19 40 -21 48 -3 5 10 7 10 12 0 7 -15 36 -17 50 -4 5 5
20 11 34 13 15 2 26 11 29 23 3 20 3 20 -18 1 -21 -19 -21 -19 -21 12 0 40 -9
62 -25 62 -20 0 -27 -33 -15 -65 12 -32 8 -40 -16 -31 -16 6 -17 45 0 91 7 17
5 17 -13 -4 -13 -14 -21 -37 -21 -57 0 -24 -5 -34 -15 -34 -11 0 -15 12 -15
49 0 57 -13 71 -41 45 -11 -10 -19 -12 -19 -6 0 7 -4 12 -10 12 -5 0 -10 -20
-10 -45 0 -39 -3 -45 -25 -51 -36 -9 -41 1 -16 32 25 32 27 60 5 68 -22 9 -54
-21 -54 -50 0 -29 -10 -54 -21 -54 -5 0 -9 23 -9 50 0 28 -4 50 -10 50 -5 0
-10 -14 -10 -31 0 -33 -15 -69 -29 -69 -15 0 -20 26 -11 64 6 27 5 36 -3 33
-7 -2 -15 -23 -19 -47 -4 -24 -14 -51 -23 -59 -13 -14 -15 -10 -15 31 0 57
-18 73 -22 21 -3 -43 -31 -54 -36 -15 -4 25 23 62 45 62 7 0 13 5 13 11 0 13
-39 2 -59 -16 -7 -7 -16 -28 -20 -46 -5 -27 -12 -35 -34 -37 -32 -4 -35 8 -7
33 24 22 26 60 4 69 -22 8 -21 9 -38 -16z m34 -10 c0 -19 -18 -43 -25 -36 -9
9 4 48 16 48 5 0 9 -6 9 -12z m320 3 c0 -17 -12 -41 -21 -41 -10 0 -12 33 -2
43 9 10 23 9 23 -2z m217 -33 c-3 -7 -5 -2 -5 12 0 14 2 19 5 13 2 -7 2 -19 0
-25z m-397 -144 c0 -13 -4 -24 -10 -24 -5 0 -10 14 -10 31 0 17 4 28 10 24 6
-3 10 -17 10 -31z"/>
<path d="M373 978 c-11 -13 -23 -32 -27 -42 -7 -22 11 -86 25 -86 13 0 11 24
-2 37 -14 14 -5 56 17 77 22 23 81 21 94 -3 16 -32 12 -60 -15 -86 -36 -37
-45 -31 -45 30 0 30 -4 55 -10 55 -6 0 -10 -37 -10 -90 0 -53 4 -90 10 -90 6
0 10 11 10 24 0 15 7 27 18 30 29 9 61 49 68 82 14 70 -84 116 -133 62z"/>
<path d="M632 958 c-7 -7 -12 -16 -12 -20 0 -15 15 -8 28 12 13 22 3 27 -16 8z"/>
<path d="M880 955 c0 -8 7 -15 15 -15 8 0 15 7 15 15 0 8 -7 15 -15 15 -8 0
-15 -7 -15 -15z"/>
<path d="M524 904 c3 -9 6 -32 7 -52 l1 -37 11 35 c13 43 13 43 25 36 6 -3 7
-20 2 -40 -11 -50 1 -61 67 -62 l58 0 2 38 c1 38 17 68 34 68 5 0 9 -23 9 -50
0 -54 17 -73 44 -51 10 8 16 9 21 2 3 -6 32 -9 65 -7 l60 3 0 -59 c0 -32 4
-58 10 -58 6 0 10 24 10 53 l0 53 51 13 c37 10 54 10 62 2 27 -27 96 7 85 41
-3 8 -9 5 -17 -10 -11 -21 -40 -29 -54 -15 -4 3 2 17 14 29 21 22 23 64 4 71
-20 6 -47 -23 -54 -57 -9 -45 -32 -53 -25 -8 8 47 -12 70 -53 62 -30 -6 -32
-9 -35 -52 -4 -65 -28 -68 -28 -3 0 27 -4 53 -10 56 -6 4 -10 -11 -10 -38 0
-48 -17 -71 -47 -65 -21 4 -29 54 -13 78 9 13 11 13 19 0 6 -8 13 -11 17 -7
12 12 -21 38 -39 31 -17 -6 -31 -43 -36 -96 -1 -5 -5 -8 -11 -8 -5 0 -10 19
-10 43 0 58 -13 76 -40 59 -11 -7 -25 -10 -30 -7 -6 4 -10 -8 -10 -25 0 -35
-15 -70 -30 -70 -6 0 -10 23 -10 50 0 64 -18 66 -22 3 -2 -35 -7 -48 -18 -48
-15 0 -17 15 -9 65 3 20 -1 26 -18 28 -13 2 -23 8 -23 13 0 5 -7 9 -16 9 -11
0 -14 -5 -10 -16z m472 -38 c7 -29 -11 -66 -31 -66 -16 0 -21 44 -9 74 9 24
33 19 40 -8z m94 5 c0 -19 -17 -38 -25 -29 -7 7 7 48 16 48 5 0 9 -9 9 -19z"/>
<path d="M1257 720 c3 -11 9 -17 15 -14 5 3 4 12 -3 20 -16 19 -18 18 -12 -6z"/>
<path d="M1180 616 c0 -9 8 -12 25 -8 28 5 24 22 -6 22 -10 0 -19 -6 -19 -14z"/>
<path d="M1295 540 c-3 -5 -1 -10 4 -10 6 0 11 5 11 10 0 6 -2 10 -4 10 -3 0
-8 -4 -11 -10z"/>
<path d="M1164 491 c3 -5 21 -12 40 -15 19 -4 37 -12 39 -19 4 -9 6 -9 6 0 1
7 -12 19 -29 28 -32 16 -64 20 -56 6z"/>
<path d="M571 263 c7 -12 15 -20 18 -17 3 2 -3 12 -13 22 -17 16 -18 16 -5 -5z"/>
<path d="M480 266 c0 -2 8 -10 18 -17 15 -13 16 -12 3 4 -13 16 -21 21 -21 13z"/>
<path d="M1095 220 c-7 -11 9 -11 45 0 24 8 24 8 -7 9 -17 1 -35 -3 -38 -9z"/>
<path d="M1194 168 c0 -21 19 -24 35 -4 9 11 7 14 -12 18 -17 3 -23 0 -23 -14z"/>
<path d="M874 95 c-16 -12 -17 -14 -3 -15 9 0 19 7 23 15 7 19 5 19 -20 0z"/>
<path d="M825 80 c4 -6 11 -8 16 -5 14 9 11 15 -7 15 -8 0 -12 -5 -9 -10z"/>
</g>
</svg>
