<?xml version="1.0" standalone="no"?>
<!DOCTYPE svg PUBLIC "-//W3C//DTD SVG 20010904//EN"
 "http://www.w3.org/TR/2001/REC-SVG-20010904/DTD/svg10.dtd">
<svg version="1.0" xmlns="http://www.w3.org/2000/svg"
 width="225.000000pt" height="225.000000pt" viewBox="0 0 225.000000 225.000000"
 preserveAspectRatio="xMidYMid meet">

<g transform="translate(0.000000,225.000000) scale(0.100000,-0.100000)"
fill="#000000" stroke="none">
<path d="M1121 2096 c2 -3 36 -6 74 -7 53 -2 72 -6 77 -18 6 -14 7 -14 7 2 2
32 70 12 72 -21 0 -10 3 -12 6 -4 2 6 14 12 26 12 19 0 19 -1 5 -12 -22 -17
-27 -50 -9 -56 8 -3 11 0 7 7 -5 7 -1 9 9 4 13 -5 14 -7 3 -14 -10 -7 -10 -9
0 -9 9 0 10 -5 2 -19 -14 -28 -13 -30 18 -29 41 1 70 -11 77 -33 4 -10 11 -19
16 -19 5 0 9 -22 9 -50 0 -27 5 -50 10 -50 6 0 10 -7 10 -16 0 -14 3 -14 15
-4 12 10 15 10 15 -4 0 -9 -7 -16 -16 -16 -11 0 -14 -6 -9 -20 4 -11 2 -20 -4
-20 -6 0 -11 4 -11 10 0 5 -6 7 -13 4 -18 -6 -17 -32 0 -38 8 -3 11 -10 8 -16
-3 -5 -2 -10 3 -10 6 0 8 -9 5 -20 -3 -12 0 -20 6 -20 7 0 9 5 6 10 -3 6 -1
10 5 10 6 0 8 5 5 10 -3 6 -1 10 4 10 6 0 11 4 11 10 0 5 -7 6 -17 3 -10 -4
-14 -2 -10 5 4 6 -1 13 -10 15 -14 4 -13 5 5 6 12 0 22 7 22 14 0 7 11 23 25
35 23 20 25 20 34 4 8 -15 5 -18 -17 -17 -21 0 -28 -5 -30 -25 -2 -22 -1 -23
8 -7 17 27 27 20 45 -33 10 -29 21 -47 27 -44 6 4 8 -1 4 -14 -4 -12 -1 -26 8
-35 8 -8 13 -17 10 -19 -10 -10 19 -68 37 -73 36 -12 19 -25 -31 -25 -45 0
-67 13 -40 22 7 2 7 14 -1 37 -8 23 -14 29 -20 20 -4 -7 -5 -17 -3 -21 3 -4
-5 -8 -16 -8 -14 0 -20 -5 -17 -13 2 -6 -2 -18 -9 -25 -12 -10 -14 -10 -14 3
0 8 -5 15 -11 15 -6 0 -9 -7 -5 -15 3 -10 -1 -15 -12 -16 -9 -1 1 -5 23 -10
32 -8 42 -7 51 6 10 14 13 14 24 0 10 -13 9 -15 -9 -15 -25 0 -28 -27 -3 -33
11 -3 7 -5 -10 -6 -15 0 -33 -8 -41 -16 -8 -8 -17 -11 -21 -8 -3 4 -6 -1 -6
-10 0 -10 -7 -17 -15 -17 -13 0 -14 -4 -5 -20 10 -18 8 -20 -20 -20 -16 0 -30
-4 -30 -9 0 -5 -3 -16 -6 -25 -5 -14 13 -16 160 -16 l166 0 0 425 0 425 -337
0 c-185 0 -334 -2 -332 -4z m304 -66 c-10 -11 -21 -17 -24 -14 -3 3 3 12 13
20 28 20 32 17 11 -6z m40 -29 c-6 -5 -25 10 -25 20 0 5 6 4 14 -3 8 -7 12
-15 11 -17z m180 -102 c11 -16 1 -19 -13 -3 -7 8 -8 14 -3 14 5 0 13 -5 16
-11z m55 -468 c0 -5 -7 -11 -15 -15 -9 -3 -15 0 -15 9 0 8 7 15 15 15 8 0 15
-4 15 -9z"/>
<path d="M586 2005 c-4 -22 -10 -52 -15 -67 -7 -21 -6 -28 4 -28 9 0 15 14 17
38 l3 37 21 -39 21 -40 20 39 20 38 7 -36 c4 -22 13 -37 21 -37 11 0 12 7 4
32 -5 18 -9 45 -9 60 0 40 -13 35 -37 -14 l-20 -43 -26 50 -25 50 -6 -40z"/>
<path d="M738 1985 c-10 -25 -13 -45 -8 -45 6 0 10 7 10 15 0 20 20 19 36 -2
22 -32 23 -9 0 35 l-22 42 -16 -45z"/>
<path d="M810 2010 c-19 -19 -20 -24 -7 -43 16 -24 54 -34 69 -19 6 6 1 8 -15
5 -34 -7 -53 25 -32 53 12 17 17 17 35 6 19 -11 21 -11 18 0 -7 22 -45 21 -68
-2z"/>
<path d="M890 1985 c0 -25 5 -45 10 -45 6 0 10 9 10 20 0 14 7 20 21 20 16 0
19 -4 14 -20 -5 -16 -2 -20 16 -20 12 0 28 8 35 18 13 16 15 16 27 0 11 -14
30 -17 104 -16 50 0 95 -2 100 -5 14 -9 16 63 2 79 -15 18 -53 18 -69 -1 -11
-13 -15 -13 -33 0 -12 8 -32 15 -44 15 -20 0 -23 -5 -23 -40 0 -51 -13 -51
-30 0 -13 38 -37 46 -27 9 3 -11 1 -17 -3 -14 -5 3 -11 -4 -15 -15 -12 -37
-28 -22 -22 20 4 29 1 40 -8 40 -7 0 -12 -8 -11 -17 0 -10 -7 -19 -16 -21 -13
-2 -18 3 -18 17 0 12 -4 21 -10 21 -5 0 -10 -20 -10 -45z m214 29 c10 -4 16
-18 16 -35 0 -22 -5 -29 -20 -29 -16 0 -20 7 -20 35 0 38 0 38 24 29z m114
-38 c-4 -30 -42 -28 -46 3 -2 13 2 27 9 32 18 11 41 -10 37 -35z m-71 -18 c-3
-8 -6 -5 -6 6 -1 11 2 17 5 13 3 -3 4 -12 1 -19z"/>
<path d="M1304 1999 c-3 -6 -14 -9 -24 -6 -11 3 -21 -2 -24 -10 -3 -8 -1 -11
4 -8 6 3 10 -3 10 -14 0 -24 -2 -23 62 -26 26 -1 45 2 42 7 -3 4 0 8 5 8 19 0
12 28 -9 35 -11 3 -20 11 -20 16 0 13 -37 11 -46 -2z m6 -40 c0 -5 -4 -9 -8
-9 -5 0 -9 7 -9 15 0 8 4 12 9 9 4 -3 8 -9 8 -15z"/>
<path d="M1462 1758 c7 -20 54 -22 61 -4 5 13 -1 16 -29 16 -24 0 -34 -4 -32
-12z"/>
<path d="M1234 1719 c-3 -6 -1 -16 5 -22 9 -9 10 -7 5 7 -5 13 -4 17 4 12 7
-4 12 -2 12 3 0 14 -17 14 -26 0z"/>
<path d="M1370 1675 c-7 -9 -11 -17 -9 -20 3 -2 10 5 17 15 14 24 10 26 -8 5z"/>
<path d="M1400 1679 c0 -5 5 -7 10 -4 6 3 10 8 10 11 0 2 -4 4 -10 4 -5 0 -10
-5 -10 -11z"/>
<path d="M1445 1660 l-40 -7 48 -2 c26 0 47 4 47 9 0 6 -3 9 -7 9 -5 -1 -26
-5 -48 -9z"/>
<path d="M1325 1620 c-3 -6 1 -7 9 -4 18 7 21 14 7 14 -6 0 -13 -4 -16 -10z"/>
<path d="M1480 1620 c0 -5 7 -7 15 -4 9 4 15 0 15 -8 0 -8 6 -15 14 -15 11 0
12 4 3 19 -12 19 -47 25 -47 8z"/>
<path d="M1582 1625 c4 -4 1 -14 -7 -22 -22 -21 -18 -33 10 -33 14 0 25 5 25
10 0 6 -4 10 -10 10 -5 0 -7 6 -4 14 3 8 -1 17 -8 22 -7 4 -10 4 -6 -1z"/>
<path d="M1285 1610 c-3 -5 -1 -10 4 -10 6 0 11 5 11 10 0 6 -2 10 -4 10 -3 0
-8 -4 -11 -10z"/>
<path d="M1441 1604 c0 -11 3 -14 6 -6 3 7 2 16 -1 19 -3 4 -6 -2 -5 -13z"/>
<path d="M1347 1599 c7 -7 15 -10 18 -7 3 3 -2 9 -12 12 -14 6 -15 5 -6 -5z"/>
<path d="M1486 1575 c-9 -26 -7 -32 5 -12 6 10 9 21 6 23 -2 3 -7 -2 -11 -11z"/>
<path d="M1515 1570 c-3 -5 -1 -10 4 -10 6 0 11 5 11 10 0 6 -2 10 -4 10 -3 0
-8 -4 -11 -10z"/>
<path d="M1306 1561 c-4 -5 3 -7 14 -4 23 6 26 13 6 13 -8 0 -17 -4 -20 -9z"/>
<path d="M1350 1550 c0 -5 5 -10 11 -10 5 0 7 -5 3 -12 -4 -7 -3 -8 5 -4 9 6
9 11 0 22 -14 17 -19 18 -19 4z"/>
<path d="M1437 1540 c-3 -11 -1 -20 4 -20 5 0 9 9 9 20 0 11 -2 20 -4 20 -2 0
-6 -9 -9 -20z"/>
<path d="M1390 1518 c-10 -21 -10 -21 3 -6 8 10 18 14 22 10 5 -4 5 -1 1 6
-10 17 -14 15 -26 -10z"/>
<path d="M1545 1530 c3 -6 -1 -17 -9 -26 -9 -8 -16 -21 -16 -27 0 -7 5 -4 11
6 5 9 17 17 26 17 9 0 13 6 9 15 -3 9 0 15 10 15 9 0 12 -5 8 -11 -4 -7 -1
-10 6 -7 31 10 21 28 -15 28 -22 0 -34 -4 -30 -10z"/>
<path d="M1210 1520 c0 -5 5 -10 11 -10 5 0 7 5 4 10 -3 6 -8 10 -11 10 -2 0
-4 -4 -4 -10z"/>
<path d="M1491 1521 c-8 -5 -9 -11 -3 -15 5 -3 12 1 16 9 6 17 6 18 -13 6z"/>
<path d="M1355 1490 c3 -5 8 -10 11 -10 2 0 4 5 4 10 0 6 -5 10 -11 10 -5 0
-7 -4 -4 -10z"/>
<path d="M1458 1493 c13 -3 19 -9 16 -15 -4 -7 -2 -8 5 -4 17 11 3 26 -22 25
-22 -2 -22 -2 1 -6z"/>
<path d="M460 1364 l0 -104 180 0 c150 0 180 2 180 14 0 18 -18 30 -45 31 -13
0 -20 6 -19 17 3 32 -60 69 -121 71 -30 1 -55 7 -55 12 0 14 -57 48 -92 56
l-28 6 0 -103z"/>
<path d="M817 1370 c-8 -12 -12 -30 -9 -43 l7 -22 3 23 c3 17 10 22 34 22 18
0 37 -8 44 -17 13 -17 13 -17 14 2 0 30 -13 44 -47 51 -24 5 -34 2 -46 -16z"/>
<path d="M1390 1369 c0 -5 -4 -8 -9 -5 -4 3 -7 -10 -5 -29 l2 -34 -241 2 -242
2 -1 -22 -2 -23 212 -1 c368 -3 344 -5 352 26 3 14 11 25 18 25 6 0 11 11 11
24 0 13 -2 23 -4 21 -2 -3 -13 2 -25 10 -24 17 -66 20 -66 4z"/>
<path d="M848 1273 c7 -3 16 -2 19 1 4 3 -2 6 -13 5 -11 0 -14 -3 -6 -6z"/>
<path d="M840 1250 c0 -5 5 -10 10 -10 6 0 10 5 10 10 0 6 -4 10 -10 10 -5 0
-10 -4 -10 -10z"/>
<path d="M1088 1233 c12 -2 30 -2 40 0 9 3 -1 5 -23 4 -22 0 -30 -2 -17 -4z"/>
<path d="M1203 1233 c31 -2 83 -2 115 0 31 2 5 3 -58 3 -63 0 -89 -1 -57 -3z"/>
<path d="M1573 1233 c43 -2 110 -2 150 0 40 1 5 3 -78 3 -82 0 -115 -2 -72 -3z"/>
<path d="M848 1200 c-3 -61 5 -196 13 -205 6 -5 9 20 8 65 -1 41 -1 90 0 109
1 18 -3 39 -8 44 -8 8 -11 4 -13 -13z"/>
<path d="M1143 1213 c15 -2 39 -2 55 0 15 2 2 4 -28 4 -30 0 -43 -2 -27 -4z"/>
<path d="M1268 1213 c6 -2 18 -2 25 0 6 3 1 5 -13 5 -14 0 -19 -2 -12 -5z"/>
<path d="M1620 1210 c69 -3 109 -7 90 -9 l-35 -3 40 -8 c22 -4 49 -4 60 1 18
7 18 8 -5 9 -23 1 -23 2 -5 10 12 5 -36 8 -125 7 l-145 -1 125 -6z"/>
<path d="M1397 1204 c-9 -10 2 -24 19 -24 8 0 14 7 14 15 0 15 -21 21 -33 9z"/>
<path d="M1082 1194 c7 -7 189 -7 196 1 3 3 -41 5 -98 5 -57 0 -101 -2 -98 -6z"/>
<path d="M1548 1193 c7 -3 16 -2 19 1 4 3 -2 6 -13 5 -11 0 -14 -3 -6 -6z"/>
<path d="M473 1163 c9 -2 25 -2 35 0 9 3 1 5 -18 5 -19 0 -27 -2 -17 -5z"/>
<path d="M540 1163 c8 -3 18 -11 23 -17 5 -8 9 -8 15 0 4 6 14 14 22 17 8 3
-5 5 -30 5 -25 0 -38 -2 -30 -5z"/>
<path d="M648 1163 c7 -3 16 -2 19 1 4 3 -2 6 -13 5 -11 0 -14 -3 -6 -6z"/>
<path d="M1048 1163 c7 -3 16 -2 19 1 4 3 -2 6 -13 5 -11 0 -14 -3 -6 -6z"/>
<path d="M1230 1160 c0 -5 10 -10 23 -10 18 0 19 2 7 10 -19 13 -30 13 -30 0z"/>
<path d="M1550 1160 c0 -5 5 -10 10 -10 6 0 10 5 10 10 0 6 -4 10 -10 10 -5 0
-10 -4 -10 -10z"/>
<path d="M1390 1145 c0 -8 9 -15 20 -15 11 0 20 7 20 15 0 8 -9 15 -20 15 -11
0 -20 -7 -20 -15z"/>
<path d="M1623 1153 l47 -4 0 -50 0 -49 35 0 c34 0 35 1 35 40 0 22 -1 43 -2
48 -1 4 11 10 28 13 16 4 -20 6 -81 6 -60 0 -89 -2 -62 -4z m97 -23 c0 -5 -10
-10 -22 -9 -22 0 -22 1 -3 9 11 5 21 9 23 9 1 1 2 -3 2 -9z m-20 -46 c0 -14
-4 -23 -9 -19 -11 6 -10 45 1 45 4 0 8 -12 8 -26z m30 6 c0 -11 -4 -20 -10
-20 -5 0 -10 9 -10 20 0 11 5 20 10 20 6 0 10 -9 10 -20z"/>
<path d="M541 1132 c-1 -13 3 -21 8 -18 5 4 12 0 14 -6 4 -10 8 -9 16 2 9 12
11 11 12 -10 1 -19 3 -17 8 10 7 35 2 57 -6 33 -3 -7 -13 -13 -23 -13 -10 0
-21 6 -23 13 -3 6 -6 2 -6 -11z"/>
<path d="M786 1125 c-9 -26 -7 -32 5 -12 6 10 9 21 6 23 -2 3 -7 -2 -11 -11z"/>
<path d="M1102 1132 c-7 -5 -14 -22 -15 -38 -1 -22 2 -28 16 -28 9 1 35 2 57
3 28 1 40 5 40 16 0 8 -5 15 -11 15 -5 0 -7 -4 -4 -10 3 -5 1 -10 -4 -10 -6 0
-11 9 -11 20 0 12 5 17 13 14 8 -3 14 1 14 8 0 15 -75 23 -95 10z m55 -39 c-3
-10 -5 -4 -5 12 0 17 2 24 5 18 2 -7 2 -21 0 -30z m-50 -5 c-3 -7 -5 -2 -5 12
0 14 2 19 5 13 2 -7 2 -19 0 -25z m33 22 c0 -5 -4 -10 -10 -10 -5 0 -10 5 -10
10 0 6 5 10 10 10 6 0 10 -4 10 -10z"/>
<path d="M1290 1087 c0 -20 4 -37 10 -37 5 0 7 14 3 33 -8 45 -13 47 -13 4z"/>
<path d="M1390 1091 c0 -6 4 -13 10 -16 6 -3 7 1 4 9 -7 18 -14 21 -14 7z"/>
<path d="M730 1070 c0 -6 7 -10 15 -10 8 0 15 2 15 4 0 2 -7 6 -15 10 -8 3
-15 1 -15 -4z"/>
<path d="M553 1063 c9 -2 25 -2 35 0 9 3 1 5 -18 5 -19 0 -27 -2 -17 -5z"/>
<path d="M1390 1015 c0 -10 7 -15 18 -13 21 4 19 22 -2 26 -10 2 -16 -3 -16
-13z"/>
<path d="M1099 1000 c0 -3 0 -36 0 -75 1 -74 -2 -85 -34 -103 -16 -9 0 -11 78
-12 63 0 96 4 92 10 -3 6 -15 10 -26 10 -20 0 -21 3 -20 112 l0 56 -45 4 c-24
2 -44 1 -45 -2z m46 -20 l-30 -7 30 -5 30 -5 -32 -2 c-31 -1 -41 7 -26 22 3 4
18 6 32 6 25 -1 25 -2 -4 -9z m2 -116 c-3 -3 -12 -4 -19 -1 -8 3 -5 6 6 6 11
1 17 -2 13 -5z"/>
<path d="M543 993 c9 -2 23 -2 30 0 6 3 -1 5 -18 5 -16 0 -22 -2 -12 -5z"/>
<path d="M592 987 c-2 -14 -8 -16 -33 -12 -30 5 -30 5 -27 -32 3 -35 6 -38 36
-41 24 -2 32 -8 32 -23 0 -14 -7 -19 -25 -19 -14 0 -25 5 -25 11 0 7 -10 1
-23 -13 l-23 -25 -12 51 c-24 99 -32 76 -32 -88 0 -147 1 -158 18 -151 72 29
276 95 280 90 3 -3 8 -64 11 -135 5 -103 3 -134 -8 -144 -19 -20 -5 -35 27
-30 47 8 50 11 45 48 -6 48 16 288 28 300 12 13 12 186 -1 186 -6 0 -11 -32
-11 -75 -1 -41 -3 -79 -4 -85 -1 -5 -3 -18 -4 -28 -1 -14 -8 -17 -43 -14 -49
5 -57 14 -58 62 -1 32 -2 33 -11 12 -9 -23 -9 -23 -34 -5 -26 19 -30 27 -39
85 -8 43 -31 57 -43 25 -6 -18 -9 -14 -14 23 -3 25 -7 37 -7 27z m-36 -64
c-11 -11 -17 4 -9 23 7 18 8 18 11 1 2 -10 1 -21 -2 -24z m30 0 c-11 -11 -19
6 -11 24 8 17 8 17 12 0 3 -10 2 -21 -1 -24z"/>
<path d="M975 951 c0 -27 3 -47 8 -44 9 6 9 93 -1 93 -4 0 -7 -22 -7 -49z"/>
<path d="M1295 963 c2 -21 4 -44 4 -50 1 -7 5 -13 11 -13 5 0 7 13 4 30 -5 22
-3 30 7 30 9 0 6 5 -6 12 -19 12 -19 12 5 19 l25 7 -27 1 c-25 1 -27 -1 -23
-36z"/>
<path d="M1527 988 c9 -16 10 -20 12 -58 0 -16 4 -30 9 -30 6 0 7 20 3 88 -1
6 -8 12 -17 12 -10 0 -12 -4 -7 -12z"/>
<path d="M1670 975 c0 -15 -6 -25 -15 -25 -8 0 -19 -16 -25 -40 -10 -38 -13
-40 -51 -40 l-40 0 6 -54 7 -54 -61 -7 c-53 -6 -61 -10 -56 -25 3 -9 12 -53
20 -96 26 -143 38 -199 45 -207 4 -5 24 -5 44 -2 36 7 48 29 27 51 -10 10 -31
156 -31 216 0 21 5 38 10 38 6 0 59 -18 119 -40 60 -22 111 -40 115 -40 3 0 6
62 5 138 0 104 -3 130 -11 110 -8 -24 -15 -28 -48 -28 -24 0 -40 5 -44 15 -4
11 2 15 27 15 32 0 33 1 31 43 -2 23 -3 45 -3 50 -1 4 -17 7 -36 7 -31 0 -35
-3 -35 -25z m53 -2 c-7 -2 -21 -2 -30 0 -10 3 -4 5 12 5 17 0 24 -2 18 -5z
m-23 -40 c0 -19 -3 -24 -10 -17 -6 6 -8 18 -4 27 9 24 14 21 14 -10z m30 0 c0
-22 -2 -25 -10 -13 -13 20 -13 40 0 40 6 0 10 -12 10 -27z m-110 -88 c0 -8 -8
-15 -18 -15 -10 0 -23 -5 -30 -12 -8 -8 -12 -9 -12 -1 0 6 -2 18 -5 25 -4 10
4 15 30 16 26 2 35 -1 35 -13z"/>
<path d="M725 910 c3 -5 8 -10 11 -10 2 0 4 5 4 10 0 6 -5 10 -11 10 -5 0 -7
-4 -4 -10z"/>
<path d="M1401 848 c-1 -26 -6 -59 -11 -73 -9 -23 -14 -26 -40 -20 -17 4 -30
5 -31 3 -8 -30 -22 -313 -16 -323 11 -20 44 -19 55 3 5 9 12 51 16 92 3 41 15
123 27 182 17 83 19 115 11 145 l-10 38 -1 -47z"/>
<path d="M1230 863 c19 -3 38 -10 42 -16 5 -8 8 -6 8 6 0 14 -8 17 -42 15 -41
-1 -41 -1 -8 -5z"/>
<path d="M912 763 l-43 -4 5 -42 c3 -23 8 -80 11 -127 11 -158 14 -170 44
-170 l26 0 3 175 c2 96 2 174 0 173 -2 -1 -22 -3 -46 -5z"/>
<path d="M1655 370 c-5 -8 -4 -11 3 -6 6 4 18 -5 26 -21 8 -15 15 -23 16 -17
0 7 -8 22 -18 35 -15 17 -21 19 -27 9z"/>
<path d="M1265 360 c-3 -5 -1 -10 4 -10 6 0 11 5 11 10 0 6 -2 10 -4 10 -3 0
-8 -4 -11 -10z"/>
<path d="M1291 354 c0 -11 3 -14 6 -6 3 7 2 16 -1 19 -3 4 -6 -2 -5 -13z"/>
<path d="M1657 333 c-2 -5 -1 -19 4 -33 7 -23 7 -23 8 8 1 31 -3 40 -12 25z"/>
<path d="M906 303 c-6 -14 -5 -15 5 -6 7 7 10 15 7 18 -3 3 -9 -2 -12 -12z"/>
<path d="M1171 304 c0 -11 3 -14 6 -6 3 7 2 16 -1 19 -3 4 -6 -2 -5 -13z"/>
<path d="M1685 300 c-3 -5 -1 -10 4 -10 6 0 11 5 11 10 0 6 -2 10 -4 10 -3 0
-8 -4 -11 -10z"/>
<path d="M1226 258 c3 -5 10 -6 15 -3 13 9 11 12 -6 12 -8 0 -12 -4 -9 -9z"/>
</g>
</svg>
