<?xml version="1.0" standalone="no"?>
<!DOCTYPE svg PUBLIC "-//W3C//DTD SVG 20010904//EN"
 "http://www.w3.org/TR/2001/REC-SVG-20010904/DTD/svg10.dtd">
<svg version="1.0" xmlns="http://www.w3.org/2000/svg"
 width="181.000000pt" height="279.000000pt" viewBox="0 0 181.000000 279.000000"
 preserveAspectRatio="xMidYMid meet">

<g transform="translate(0.000000,279.000000) scale(0.100000,-0.100000)"
fill="#000000" stroke="none">
<path d="M915 2449 c-89 -15 -228 -59 -282 -90 -64 -37 -187 -131 -219 -167
-75 -87 -116 -247 -115 -447 1 -77 2 -150 3 -163 3 -20 -5 -26 -50 -41 -53
-18 -68 -31 -100 -86 -13 -23 -17 -53 -17 -125 1 -152 59 -311 127 -346 36
-19 137 -13 194 11 l33 14 38 -62 c52 -86 185 -219 248 -247 60 -26 164 -37
221 -21 109 29 260 173 324 307 l39 81 48 7 c100 13 200 82 223 152 7 20 10
69 8 111 -4 85 -15 98 -101 130 -34 12 -46 21 -42 32 18 60 56 287 65 391 19
212 0 297 -90 394 -125 133 -349 200 -555 165z m209 -596 c19 -57 54 -95 110
-118 37 -16 38 -16 32 2 -4 10 -9 32 -12 48 -4 24 0 20 19 -20 26 -55 69 -110
98 -126 17 -9 18 -7 9 16 -21 56 -8 57 14 2 14 -32 36 -76 50 -98 14 -21 26
-45 26 -52 0 -30 -141 -439 -184 -532 -46 -102 -187 -233 -279 -260 -75 -22
-110 -19 -204 22 -129 55 -206 138 -316 343 -51 94 -122 297 -133 376 l-6 51
55 52 c51 48 83 90 146 191 l22 35 -6 -35 c-4 -19 -15 -52 -25 -72 -9 -21 -15
-38 -12 -38 3 0 27 14 53 31 47 30 84 67 122 119 17 24 17 24 2 -15 -9 -22
-23 -51 -32 -64 -15 -23 -15 -24 13 -17 123 29 316 189 387 321 l21 40 7 -76
c3 -42 14 -98 23 -126z m-801 -370 c4 -19 1 -31 -10 -38 -55 -35 -72 -58 -83
-112 -15 -69 -9 -188 10 -228 14 -27 20 -30 72 -33 35 -2 71 3 94 13 20 8 38
14 39 13 18 -23 23 -47 12 -57 -51 -41 -144 -52 -193 -22 -58 35 -103 168
-104 306 0 83 19 129 69 162 49 33 87 31 94 -4z m1254 -79 c47 -29 57 -157 16
-212 -29 -39 -91 -70 -156 -78 -52 -6 -57 -5 -57 12 0 31 13 41 61 48 70 10
109 61 109 141 0 35 -6 51 -25 70 -13 14 -31 25 -40 25 -8 0 -15 5 -15 11 0
14 77 2 107 -17z m-1196 -134 c44 -137 45 -141 26 -158 -14 -12 -36 -17 -80
-17 l-62 0 -13 50 c-21 81 -4 205 35 247 35 38 46 23 94 -122z m1124 83 c20
-19 15 -75 -11 -124 -11 -22 -22 -29 -45 -29 -16 0 -32 6 -35 14 -3 7 4 46 16
85 23 76 41 89 75 54z"/>
<path d="M660 1547 c-18 -10 -30 -10 -43 -3 -23 14 -49 -2 -58 -37 -7 -27 10
-57 32 -57 23 0 49 22 50 43 l0 22 10 -23 c12 -30 29 -19 29 19 0 19 5 29 15
29 11 0 15 -11 15 -40 0 -22 5 -40 11 -40 6 0 9 19 7 48 -3 53 -22 63 -68 39z
m-50 -63 c0 -9 -5 -14 -12 -12 -18 6 -21 28 -4 28 9 0 16 -7 16 -16z"/>
<path d="M756 1543 c-3 -10 -8 -35 -12 -55 -5 -33 -4 -38 13 -38 10 0 30 8 43
17 l25 17 -19 -22 c-23 -26 -10 -47 35 -57 24 -6 28 -10 19 -21 -22 -25 -6
-36 22 -15 l26 21 11 -30 c12 -36 37 -48 57 -28 16 16 10 68 -7 68 -5 0 -6
-12 -3 -26 5 -20 3 -25 -7 -22 -8 2 -15 16 -17 31 -3 22 1 26 25 29 37 4 46
50 13 68 -26 14 -50 7 -50 -15 0 -19 -62 -47 -84 -39 -24 9 -19 23 10 30 17 4
22 9 14 14 -19 12 -2 30 26 30 16 0 24 5 22 13 -7 21 -39 20 -68 -2 -25 -18
-27 -18 -23 -2 10 38 -60 71 -71 34z m44 -32 c0 -20 -17 -37 -27 -28 -7 8 7
47 18 47 5 0 9 -9 9 -19z m170 -66 c0 -8 -7 -15 -15 -15 -9 0 -12 6 -9 15 4 8
10 15 15 15 5 0 9 -7 9 -15z"/>
<path d="M500 1520 l-25 -19 33 -31 c18 -17 30 -36 26 -41 -4 -6 -15 -2 -29
11 -26 24 -42 12 -25 -19 24 -45 -6 -59 -35 -15 -16 25 -17 25 -36 8 -23 -21
-25 -38 -3 -30 10 4 25 -3 40 -19 29 -31 60 -33 69 -2 4 12 19 31 33 43 l26
21 -22 38 c-16 26 -20 41 -12 50 9 11 4 25 -9 25 -3 0 -17 -9 -31 -20z"/>
<path d="M1661 44 c0 -11 3 -14 6 -6 3 7 2 16 -1 19 -3 4 -6 -2 -5 -13z"/>
<path d="M1620 40 c0 -5 5 -10 11 -10 5 0 7 5 4 10 -3 6 -8 10 -11 10 -2 0 -4
-4 -4 -10z"/>
<path d="M1680 40 c0 -5 5 -10 10 -10 6 0 10 5 10 10 0 6 -4 10 -10 10 -5 0
-10 -4 -10 -10z"/>
<path d="M1750 40 c0 -5 5 -10 10 -10 6 0 10 5 10 10 0 6 -4 10 -10 10 -5 0
-10 -4 -10 -10z"/>
</g>
</svg>
